<svg width="20" height="20" viewBox="0 0 20 20" fill="none" xmlns="http://www.w3.org/2000/svg">
<path d="M16.7495 7.97051L14.7209 9.99902L16.7495 12.0275L18.778 9.99902L16.7495 7.97051Z" fill="white"/>
<path d="M3.25141 7.97149L1.2229 10L3.25141 12.0285L5.27993 10L3.25141 7.97149Z" fill="white"/>
<path d="M10 14.7219L6.6375 11.3594L4.60938 13.3875L10 18.7781L15.3906 13.3875L13.3625 11.3594L10 14.7219Z" fill="white"/>
<path d="M10 5.27793L13.3625 8.64043L15.3906 6.6123L10 1.22168L4.60938 6.6123L6.6375 8.64043L10 5.27793Z" fill="white"/>
<path d="M9.99895 7.9969L7.99585 10L9.99895 12.0031L12.0021 10L9.99895 7.9969Z" fill="white"/>
</svg>
