<svg width="20" height="20" viewBox="0 0 20 20" fill="none" xmlns="http://www.w3.org/2000/svg">
<path d="M11.7188 7.77832V5.82363H16.1657V2.73926H3.82197V5.82363H8.28135V7.77832C4.54541 7.95801 1.74072 8.70801 1.74072 9.60644C1.74072 10.5049 4.54228 11.2502 8.28135 11.4346V17.8861H11.7188V11.4346C15.4548 11.2564 18.2595 10.5064 18.2595 9.60644C18.2595 8.70644 15.4579 7.95801 11.7188 7.77832ZM10.0001 10.8502C5.95478 10.8502 2.6751 10.2252 2.6751 9.47207C2.6751 8.82363 5.06416 8.27988 8.27822 8.13457V10.3424C8.83135 10.3674 9.40635 10.3814 9.99697 10.3814C10.5876 10.3814 11.1657 10.3674 11.7157 10.3424V8.13457C14.9298 8.27988 17.3188 8.82363 17.3188 9.47207C17.3251 10.233 14.0454 10.8502 10.0001 10.8502Z" fill="white"/>
</svg>
