<svg width="144" height="56" viewBox="0 0 144 56" fill="none" xmlns="http://www.w3.org/2000/svg">
<path d="M-5.46007e-06 37.9807C2.3359 36.9707 3.64244 35.4354 4.47387 34.1829C5.02815 33.3345 5.42407 32.4053 5.78039 31.5568C6.45346 29.9003 7.04734 28.4863 8.6706 27.8398C11.64 26.6278 15.52 27.7186 18.0538 28.4459C22.1714 29.6175 25.5367 29.0519 27.6351 26.9106C27.9518 27.3146 28.2685 27.7186 28.6248 28.0823C29.8918 29.5771 31.0795 30.9912 31.2379 32.8497C31.2775 33.1325 31.1983 33.4153 31.0399 33.4961C30.644 33.7789 30.5252 34.3446 30.8024 34.7486C30.9608 34.991 31.2379 35.1526 31.5546 35.1526C31.713 35.1526 31.911 35.1122 32.0693 34.991C32.7424 34.5062 33.1383 33.6173 33.0195 32.6477C32.782 30.2236 31.3567 28.5267 29.971 26.9106C28.9416 25.6581 27.9518 24.5269 27.5163 23.1128C26.8828 21.0927 27.3975 18.8302 28.9416 16.8909C31.8318 13.2143 37.8893 11.0326 42.284 13.6992C43.2342 14.2648 44.5803 15.3556 45.2534 16.4465C46.7975 19.8403 49.5293 21.6987 53.1717 21.8199C53.4885 21.8199 53.8448 21.7795 54.1615 21.7391C54.5179 21.6987 55.1513 21.6179 55.3493 21.7391C55.3493 21.7391 55.3493 21.8199 55.3493 21.9412C55.3493 22.5876 55.3097 23.234 55.2305 23.84C55.0721 25.9409 54.9138 28.1227 56.1411 30.3044C59.4668 36.1222 66.5538 38.4252 71.6215 38.6676C71.8591 38.6676 72.0966 38.6676 72.3738 38.6676C78.5501 38.6676 86.1913 35.4758 89.3982 29.1327C89.6358 28.6883 89.4378 28.1227 89.0023 27.9206C88.5668 27.6782 88.0125 27.8802 87.8145 28.3247C84.8056 34.2638 77.4019 37.1323 71.6611 36.8899C67.0685 36.6879 60.615 34.6274 57.6456 29.4155C56.6954 27.7186 56.8142 26.0218 56.9726 24.0017C57.0121 23.3552 57.0517 22.6684 57.0913 21.9816C57.0913 21.3351 56.8934 20.8099 56.4974 20.4463C55.7848 19.7998 54.7554 19.9211 53.924 20.0019C53.6468 20.0423 53.3697 20.0423 53.1717 20.0423C50.2815 19.9211 48.1832 18.5474 46.9162 15.9213C46.9162 15.8405 46.8767 15.8001 46.8371 15.7193C46.7975 15.6788 46.7579 15.598 46.7183 15.5576L46.7183 15.5172C44.4616 10.265 46.0848 2.3462 49.0542 -1.20917C51.786 -4.48173 57.5268 -6.98665 61.7632 -5.49178C63.3468 -4.92615 64.6138 -6.017 65.6432 -6.86545C65.9599 -7.10786 66.237 -7.35027 66.5142 -7.55228C68.4542 -8.84514 71.4631 -9.24916 74.195 -8.52192C76.2537 -7.9563 79.1044 -6.58263 80.9256 -3.02726C79.1439 0.326105 79.4211 4.48751 80.3713 7.55806C80.3713 7.63886 80.3317 7.71967 80.3713 7.80047C80.7672 11.5579 77.6395 15.9617 73.6803 17.1333C69.7211 18.3454 64.2574 16.8909 62.6738 12.9315C62.0799 11.3962 62.0799 9.78017 62.7529 8.24489C63.624 6.22479 65.4848 4.48751 67.7415 3.59866C68.8897 3.15424 71.1464 2.70982 72.4133 3.35625C72.8093 3.55826 73.0468 3.88148 73.1656 4.3259C73.2448 4.68952 73.2052 5.05314 73.0072 5.37635C72.6509 5.98238 71.7799 6.50761 70.8297 6.75002C70.3546 6.87122 70.0378 7.35605 70.1566 7.84087C70.2754 8.32569 70.7505 8.64891 71.2256 8.5277C72.3342 8.28529 73.7991 7.55806 74.5513 6.346C74.9868 5.61876 75.1056 4.77032 74.9076 3.88148C74.6701 2.95223 74.1158 2.225 73.2448 1.78058C71.3048 0.770526 68.375 1.41696 67.108 1.94218C64.4158 2.99263 62.1591 5.09354 61.1297 7.55806C60.2983 9.53775 60.2587 11.6387 61.0505 13.6183C62.555 17.4565 66.7517 19.3554 70.7901 19.3554C71.9778 19.3554 73.126 19.1938 74.2346 18.8706C77.9166 17.7394 80.9256 14.4264 81.8758 10.8306C84.2909 14.992 88.646 18.3858 93.6345 19.9211C97.5937 21.1331 104.918 21.3351 107.808 16.7293C108.363 15.8001 108.481 14.8304 108.561 13.982C108.64 13.3759 108.679 12.8103 108.917 12.3659C109.154 11.8407 109.313 11.8003 110.184 11.7195C110.342 11.7195 110.54 11.6791 110.738 11.6387C113.391 11.275 115.489 9.61856 116.558 7.03284C117.746 4.12389 117.31 0.608923 115.489 -1.9364C113.549 -4.60293 110.144 -6.0574 106.462 -5.85539C102.899 -5.65338 99.8108 -3.9161 98.1876 -1.16876C97.95 -0.724342 98.0688 -0.199118 98.5043 0.0836964C98.9398 0.326107 99.4545 0.204903 99.7317 -0.239519C101.038 -2.46163 103.612 -3.8757 106.581 -4.0373C109.63 -4.19891 112.52 -2.98685 114.103 -0.845547C115.568 1.17455 115.925 3.96228 114.974 6.3056C114.183 8.28529 112.599 9.53776 110.58 9.78017C110.421 9.82057 110.263 9.82057 110.105 9.82057C109.154 9.90137 108.125 10.0226 107.412 11.477C107.056 12.2043 106.977 12.9719 106.898 13.6992C106.819 14.4668 106.739 15.1132 106.423 15.6789C104.206 19.2342 97.9896 19.2342 94.268 18.103C88.7251 16.4061 84.0533 12.2043 82.3905 7.35605C81.4403 4.60872 81.0048 0.285704 82.9448 -2.82525C84.2909 -4.92615 87.0623 -8.36031 90.4672 -7.55228C90.9423 -7.43107 91.4174 -7.75428 91.5362 -8.23911C91.5758 -8.48152 91.5362 -8.72393 91.4174 -8.92594C91.3382 -9.81479 91.8529 -13.1681 92.0113 -13.7338C94.0304 -20.5213 101.355 -23.8747 107.571 -24.8039C114.618 -25.8544 122.18 -22.6222 126.852 -16.6023C127.446 -15.8347 127.961 -15.0266 128.436 -14.2186C129.98 -11.5521 130.851 -8.60272 130.89 -5.77459C130.97 -3.10806 130.138 -1.12836 129.228 1.13415C129.03 1.61897 128.832 2.1038 128.634 2.58862C128.515 2.83103 128.436 3.07345 128.357 3.31586C128.198 3.80068 128.475 4.2855 128.911 4.44711C129.346 4.60872 129.861 4.36631 130.019 3.92189C130.099 3.71988 130.178 3.51787 130.257 3.31586C130.811 2.1038 131.88 1.17455 133.424 0.568523C136.948 -0.845545 142.016 -0.32032 144.51 1.13415C148.944 3.63907 152.389 8.89133 152.705 13.578C152.824 15.396 152.151 16.3657 151.241 17.7394C150.884 18.2646 150.488 18.8302 150.132 19.517C149.894 19.9615 150.053 20.4867 150.488 20.7291C150.805 20.8907 151.161 20.8503 151.439 20.6483C152.151 20.6483 154.289 21.4967 154.764 21.7796C159.436 24.8905 162.96 30.7892 162.999 35.8798C163.039 39.4352 161.376 42.3846 158.209 44.4047C155.318 46.2631 151.914 47.2328 148.588 47.152C147.163 47.1116 145.737 46.8288 144.272 46.5056C142.253 46.0611 140.194 45.6167 138.017 45.8995C134.731 46.3439 131.682 47.6368 128.713 48.8893C125.902 50.0609 123.012 51.273 119.963 51.7174C118.181 52.0002 112.045 52.5658 108.363 49.2125C103.176 44.4855 102.305 36.001 106.462 30.668C109.234 27.1126 113.589 24.6885 118.102 24.1633C121.507 23.7592 124.833 24.6077 127.01 26.4662C129.703 28.7691 130.217 32.6881 128.159 35.2738C127.525 36.0818 126.654 36.6879 125.783 36.9707C123.962 37.5767 121.824 36.9707 120.082 36.4859C119.607 36.3647 119.132 36.6475 118.973 37.1323C118.854 37.6171 119.132 38.1019 119.607 38.2636C121.547 38.7888 124.001 39.4756 126.298 38.708C127.525 38.304 128.634 37.5363 129.505 36.4455C132.197 33.0921 131.563 28.0015 128.119 25.0925C125.585 22.9512 121.745 21.9008 117.865 22.3856C112.916 22.9916 108.125 25.6581 105.037 29.5771C101.632 33.9001 101.117 39.92 103.216 44.9703C99.2962 43.8794 94.3472 45.8187 92.0509 48.2024C88.2896 52.081 84.1325 55.9192 78.1541 56C78.1145 56 78.0354 56 77.9958 56C73.8782 56 70.5129 53.3739 67.2268 50.8286C66.9101 50.5861 66.5933 50.3437 66.2766 50.1013C64.0991 48.4044 59.3481 45.8187 55.4681 46.8288C53.726 47.2732 52.4195 48.4448 51.6277 50.2225C51.4297 50.6669 51.6277 51.2326 52.0632 51.4346C52.4987 51.6366 53.053 51.4346 53.2509 50.9902C53.8052 49.7377 54.6762 48.9297 55.9036 48.6064C57.5664 48.162 59.7836 48.6468 61.8423 49.5761C61.8423 49.6569 61.8423 49.6973 61.8423 49.7781C62.0403 50.869 59.6252 52.687 57.8832 53.3739C55.9036 54.1819 53.3697 54.4243 50.8358 54.0607C47.4309 53.6163 43.6697 51.7174 43.0758 47.7984C43.3926 47.6772 43.7093 47.556 43.9864 47.3944C46.8371 45.9803 49.0146 43.5966 49.9252 40.8493C50.7171 38.4656 50.5191 35.9606 49.3709 33.6577C48.3811 31.7184 46.6787 30.466 44.6991 30.264C42.8383 30.0619 41.0567 30.7488 40.0273 32.0416C39.7105 32.4457 39.7897 33.0113 40.1461 33.3345C40.542 33.6577 41.0962 33.6173 41.413 33.2133C42.086 32.4053 43.3134 31.9608 44.5407 32.082C45.3722 32.1629 46.8767 32.6073 47.8269 34.5062C48.7771 36.3647 48.9354 38.3848 48.302 40.2836C47.5497 42.5866 45.6889 44.6066 43.2738 45.7783C39.6314 47.556 35.1971 47.3944 31.0795 45.3339C28.6644 44.1218 26.8036 42.1017 24.824 40.0008C23.5967 38.6676 22.3298 37.2939 20.9044 36.1626C19.4396 34.9506 17.1432 33.3749 14.3718 33.2537C11.6796 33.1325 9.5812 34.587 7.60162 35.9606C5.70121 37.2535 3.91958 38.506 1.70245 38.3039C1.14816 38.2635 0.593867 38.1423 -5.46007e-06 37.9807Z" fill="white"/>
</svg>
