<svg width="20" height="20" viewBox="0 0 20 20" fill="none" xmlns="http://www.w3.org/2000/svg">
<path fill-rule="evenodd" clip-rule="evenodd" d="M2.79501 5.05613C2.79501 3.80713 3.80701 2.79513 5.05601 2.79413H6.08501C6.68201 2.79413 7.25401 2.55713 7.67801 2.13713L8.39701 1.41713C9.27801 0.531134 10.71 0.527134 11.596 1.40813L11.597 1.40913L11.606 1.41713L12.326 2.13713C12.75 2.55813 13.322 2.79413 13.919 2.79413H14.947C16.196 2.79413 17.209 3.80613 17.209 5.05613V6.08313C17.209 6.68013 17.445 7.25313 17.866 7.67713L18.586 8.39713C19.472 9.27813 19.477 10.7101 18.596 11.5961L18.595 11.5971L18.586 11.6061L17.866 12.3261C17.445 12.7491 17.209 13.3211 17.209 13.9181V14.9471C17.209 16.1961 16.197 17.2081 14.948 17.2081H13.917C13.32 17.2081 12.747 17.4451 12.324 17.8661L11.604 18.5851C10.724 19.4711 9.29301 19.4761 8.40701 18.5971C8.40601 18.5961 8.40501 18.5951 8.40401 18.5941L8.39501 18.5851L7.67601 17.8661C7.25301 17.4451 6.68001 17.2091 6.08301 17.2081H5.05601C3.80701 17.2081 2.79501 16.1961 2.79501 14.9471V13.9161C2.79501 13.3191 2.55801 12.7471 2.13701 12.3241L1.41801 11.6041C0.532008 10.7241 0.527008 9.29313 1.40701 8.40713C1.40701 8.40613 1.40801 8.40513 1.40901 8.40413L1.41801 8.39513L2.13701 7.67513C2.55801 7.25113 2.79501 6.67913 2.79501 6.08113V5.05613Z" stroke="#636363" stroke-width="1.5" stroke-linecap="round" stroke-linejoin="round"/>
<path d="M7.43164 12.5716L12.5716 7.43164" stroke="#636363" stroke-width="1.5" stroke-linecap="round" stroke-linejoin="round"/>
<path d="M12.4956 12.5H12.5046" stroke="#636363" stroke-width="2" stroke-linecap="round" stroke-linejoin="round"/>
<path d="M7.49561 7.5H7.50461" stroke="#636363" stroke-width="2" stroke-linecap="round" stroke-linejoin="round"/>
</svg>
