<svg width="18" height="20" viewBox="0 0 18 20" fill="none" xmlns="http://www.w3.org/2000/svg">
<path fill-rule="evenodd" clip-rule="evenodd" d="M16.6444 6.0209C17.2586 6.49665 17.6353 7.2034 17.6995 7.97249L17.7087 8.15674V15.59C17.7087 17.5058 16.1952 19.0642 14.2987 19.165H12.4745C11.6027 19.1476 10.8978 18.4692 10.8337 17.6167L10.8245 17.4875V14.8667C10.8245 14.5817 10.6127 14.3442 10.3295 14.2975L10.247 14.2883H7.79858C7.50616 14.2975 7.26783 14.5083 7.23116 14.7833L7.22199 14.8667V17.4792C7.22199 17.5333 7.21191 17.5975 7.20366 17.6433L7.19449 17.6626L7.18441 17.7258C7.07533 18.5059 6.43366 19.1008 5.63616 19.1567L5.51699 19.165H3.87616C1.96033 19.165 0.392826 17.6626 0.291992 15.7733V8.15674C0.300242 7.37665 0.640325 6.65249 1.20866 6.14832L6.91949 1.55582C8.08366 0.630902 9.71532 0.594235 10.9152 1.44582L11.0628 1.55582L16.6444 6.0209ZM16.4244 15.7367L16.4345 15.59V8.16499C16.4244 7.77174 16.2603 7.40415 15.9762 7.13007L15.857 7.02832L10.2653 2.55499C9.56866 1.99582 8.57866 1.96924 7.84532 2.45415L7.70691 2.55499L2.13358 7.04757C1.81366 7.28499 1.62116 7.64249 1.57533 8.01832L1.56524 8.16499V15.59C1.56524 16.8092 2.51858 17.8083 3.72949 17.8817H5.51699C5.71866 17.8817 5.89283 17.7451 5.91941 17.5526L5.93866 17.3876L5.94783 17.3408V14.8667C5.94783 13.8859 6.69949 13.0884 7.66199 13.0142H10.247C11.2269 13.0142 12.0244 13.7667 12.0987 14.7292V17.4875C12.0987 17.68 12.2362 17.8459 12.4195 17.8817H14.1236C15.3519 17.8817 16.3511 16.9384 16.4244 15.7367Z" fill="#fff"/>
</svg>
